<?xml version="1.0" encoding="utf-8"?>
<!-- Generator: Adobe Illustrator 23.0.1, SVG Export Plug-In . SVG Version: 6.00 Build 0)  -->
<svg version="1.1" id="Layer_1" xmlns="http://www.w3.org/2000/svg" xmlns:xlink="http://www.w3.org/1999/xlink" x="0px" y="0px"
	 viewBox="0 0 182.6 64" style="enable-background:new 0 0 182.6 64;" xml:space="preserve">
<style type="text/css">
	.st0{fill:#283655;}
	.st1{enable-background:new    ;}
	.st2{fill:#B51C1C;}
	.st3{fill:#283655;stroke:#FFFFFF;stroke-width:2;stroke-miterlimit:10;}
	.st4{fill:#283655;stroke:#FFFFFF;stroke-width:2;}
	.st5{fill:#283655;stroke:#FFFFFF;stroke-miterlimit:10;}
</style>
<circle id="Ellipse_62" class="st0" cx="32" cy="32" r="32"/>
<g class="st1">
	<path class="st2" d="M90.3,61l-3.8-13.8L82.6,61H81l-4.6-16H78l3.9,14.1L85.8,45H87L91,59.1L94.8,45h1.5l-4.6,16H90.3z"/>
	<path class="st2" d="M113.4,61l-1.6-3.9h-8.5l-1.6,3.9h-1.6l6.6-16h1.7l6.6,16H113.4z M107.6,46.5l-3.8,9.4h7.6L107.6,46.5z"/>
	<path class="st2" d="M121.6,61V45h1.4v14.8h7.8V61H121.6z"/>
	<path class="st2" d="M137.8,61V45h1.4v14.8h7.8V61H137.8z"/>
	<path class="st2" d="M154.1,61V45h10.2v1.2h-8.8v5.9h8.6v1.2h-8.6v6.3h8.8V61H154.1z"/>
	<path class="st2" d="M176,61V46.2h-5.2V45h11.9v1.2h-5.2V61H176z"/>
</g>
<g class="st1">
	<path class="st2" d="M76,38V22h5.1c5,0,8.1,3.6,8.1,8c0,4.4-3.1,8-8.1,8H76z M87.8,30c0-3.7-2.4-6.8-6.6-6.8h-3.7v13.5h3.7
		C85.3,36.8,87.8,33.8,87.8,30z"/>
	<path class="st2" d="M96.7,38V22H98v16H96.7z"/>
	<path class="st2" d="M105.5,30c0-4.9,3.6-8.3,8.1-8.3c2.6,0,4.6,1.1,6,2.7l-1,0.7c-1.1-1.3-3-2.2-5-2.2c-3.8,0-6.7,2.9-6.7,7
		c0,4.1,2.9,7.1,6.7,7.1c2.1,0,3.8-1.1,4.7-1.9v-3.8h-6v-1.2h7.4v5.6c-1.4,1.6-3.6,2.7-6.1,2.7C109.1,38.3,105.5,35,105.5,30z"/>
	<path class="st2" d="M127.3,38V22h1.4v16H127.3z"/>
	<path class="st2" d="M140.8,38V23.2h-5.2V22h11.9v1.2h-5.2V38H140.8z"/>
	<path class="st2" d="M164.2,38l-1.6-3.9h-8.5l-1.6,3.9H151l6.6-16h1.7l6.6,16H164.2z M158.4,23.5l-3.8,9.4h7.6L158.4,23.5z"/>
	<path class="st2" d="M172.3,38V22h1.4v14.8h7.8V38H172.3z"/>
</g>
<g class="st1">
	<path class="st2" d="M84.1,14V5.8L80.7,14h-0.3L77,5.8V14h-0.8V4.7h1.2l3.2,7.7l3.2-7.7h1.2V14H84.1z"/>
	<path class="st2" d="M90,14v-4l-3.7-5.4h1l3.2,4.6l3.2-4.6h1L90.8,10v4H90z"/>
</g>
<g id="wallet-icon" transform="translate(247.68 25.998)">
	<g transform="translate(0.321 3.002)">
		<path id="Path_1029" class="st3" d="M-221.3,9.1l27.3,6.9c0.6,0.1,1-0.4,1-1.2V-9.3c0-0.7-0.3-1.4-1-1.7l-27.3-6.9
			c-0.6-0.1-1,0.4-1,1.2V7.4C-222.3,8.2-221.9,8.8-221.3,9.1z"/>
		<path id="Rectangle_1943" class="st3" d="M-196,17h-36.6c-1.7,0-3-1.3-3-3V-8c0-1.7,1.3-3,3-3h36.6c1.7,0,3,1.3,3,3v22
			C-193,15.7-194.3,17-196,17z"/>
		<path id="Path_1030" class="st4" d="M-230,6.5H-241c-2.2,0-2-1.8-2-4s-0.2-4,2-4h10.9c2.2,0,2.2,1.8,2.2,4S-227.8,6.5-230,6.5z"/>
		<circle id="Ellipse_61" class="st5" cx="-238.7" cy="2.4" r="1.3"/>
	</g>
</g>
</svg>
